<mxfile host="Electron" agent="Mozilla/5.0 (Windows NT 10.0; Win64; x64) AppleWebKit/537.36 (KHTML, like Gecko) draw.io/26.2.15 Chrome/134.0.6998.205 Electron/35.2.1 Safari/537.36" version="26.2.15">
  <diagram name="Page-1" id="-V-kWS6n9ju-NrhmhhvI">
    <mxGraphModel dx="930" dy="645" grid="1" gridSize="10" guides="1" tooltips="1" connect="1" arrows="1" fold="1" page="1" pageScale="1" pageWidth="1169" pageHeight="827" math="0" shadow="0">
      <root>
        <mxCell id="0" />
        <mxCell id="1" parent="0" />
        <mxCell id="LFzxi-WGZ4mP3qVazpCQ-1" value="&lt;b&gt;&lt;font style=&quot;font-size: 16px;&quot;&gt;inicializace&lt;/font&gt;&lt;/b&gt;" style="rounded=0;whiteSpace=wrap;html=1;strokeWidth=3;fillColor=#B9E0A5;" parent="1" vertex="1">
          <mxGeometry x="480" y="200" width="120" height="60" as="geometry" />
        </mxCell>
        <mxCell id="LFzxi-WGZ4mP3qVazpCQ-39" value="" style="edgeStyle=orthogonalEdgeStyle;rounded=0;orthogonalLoop=1;jettySize=auto;html=1;" parent="1" source="LFzxi-WGZ4mP3qVazpCQ-2" target="LFzxi-WGZ4mP3qVazpCQ-4" edge="1">
          <mxGeometry relative="1" as="geometry" />
        </mxCell>
        <mxCell id="LFzxi-WGZ4mP3qVazpCQ-2" value="&lt;b&gt;&lt;font style=&quot;font-size: 16px;&quot;&gt;semafory&lt;/font&gt;&lt;/b&gt;&lt;div&gt;&lt;b&gt;&lt;font style=&quot;font-size: 16px;&quot;&gt;pro&lt;/font&gt;&lt;/b&gt;&lt;/div&gt;&lt;div&gt;&lt;b&gt;&lt;font style=&quot;font-size: 16px;&quot;&gt;přepínání&lt;/font&gt;&lt;/b&gt;&lt;/div&gt;&lt;div&gt;&lt;b&gt;&lt;font style=&quot;font-size: 16px;&quot;&gt;úloh&lt;/font&gt;&lt;/b&gt;&lt;/div&gt;" style="rounded=0;whiteSpace=wrap;html=1;strokeWidth=3;fillColor=#B9E0A5;" parent="1" vertex="1">
          <mxGeometry x="490" y="320" width="100" height="160" as="geometry" />
        </mxCell>
        <mxCell id="LFzxi-WGZ4mP3qVazpCQ-3" value="" style="endArrow=classic;html=1;rounded=0;exitX=0.5;exitY=1;exitDx=0;exitDy=0;entryX=0.5;entryY=0;entryDx=0;entryDy=0;strokeWidth=3;" parent="1" source="LFzxi-WGZ4mP3qVazpCQ-1" target="LFzxi-WGZ4mP3qVazpCQ-2" edge="1">
          <mxGeometry width="50" height="50" relative="1" as="geometry">
            <mxPoint x="490" y="350" as="sourcePoint" />
            <mxPoint x="540" y="300" as="targetPoint" />
          </mxGeometry>
        </mxCell>
        <mxCell id="LFzxi-WGZ4mP3qVazpCQ-4" value="&lt;b&gt;&lt;font style=&quot;font-size: 16px;&quot;&gt;záznamová&lt;/font&gt;&lt;/b&gt;&lt;div&gt;&lt;b&gt;&lt;font style=&quot;font-size: 16px;&quot;&gt;úloha&lt;/font&gt;&lt;/b&gt;&lt;/div&gt;" style="rounded=0;whiteSpace=wrap;html=1;strokeWidth=3;fillColor=#B9E0A5;" parent="1" vertex="1">
          <mxGeometry x="320" y="320" width="120" height="160" as="geometry" />
        </mxCell>
        <mxCell id="LFzxi-WGZ4mP3qVazpCQ-5" value="&lt;b&gt;&lt;font style=&quot;font-size: 16px;&quot;&gt;USB Mass&lt;/font&gt;&lt;/b&gt;&lt;div&gt;&lt;b&gt;&lt;font style=&quot;font-size: 16px;&quot;&gt;Storage&lt;br&gt;&lt;/font&gt;&lt;/b&gt;&lt;div&gt;&lt;b&gt;&lt;font style=&quot;font-size: 16px;&quot;&gt;úloha&lt;/font&gt;&lt;/b&gt;&lt;/div&gt;&lt;/div&gt;" style="rounded=0;whiteSpace=wrap;html=1;strokeWidth=3;fillColor=#B9E0A5;" parent="1" vertex="1">
          <mxGeometry x="640" y="320" width="120" height="160" as="geometry" />
        </mxCell>
        <mxCell id="LFzxi-WGZ4mP3qVazpCQ-6" value="" style="endArrow=classic;html=1;rounded=0;exitX=1;exitY=0.5;exitDx=0;exitDy=0;entryX=0;entryY=0.5;entryDx=0;entryDy=0;strokeWidth=3;" parent="1" source="LFzxi-WGZ4mP3qVazpCQ-2" target="LFzxi-WGZ4mP3qVazpCQ-5" edge="1">
          <mxGeometry width="50" height="50" relative="1" as="geometry">
            <mxPoint x="550" y="270" as="sourcePoint" />
            <mxPoint x="550" y="330" as="targetPoint" />
          </mxGeometry>
        </mxCell>
        <mxCell id="LFzxi-WGZ4mP3qVazpCQ-7" value="" style="endArrow=classic;html=1;rounded=0;exitX=0;exitY=0.5;exitDx=0;exitDy=0;entryX=1;entryY=0.5;entryDx=0;entryDy=0;strokeWidth=3;" parent="1" source="LFzxi-WGZ4mP3qVazpCQ-2" target="LFzxi-WGZ4mP3qVazpCQ-4" edge="1">
          <mxGeometry width="50" height="50" relative="1" as="geometry">
            <mxPoint x="590" y="410" as="sourcePoint" />
            <mxPoint x="650" y="410" as="targetPoint" />
          </mxGeometry>
        </mxCell>
        <mxCell id="LFzxi-WGZ4mP3qVazpCQ-8" value="&lt;b&gt;&lt;font style=&quot;font-size: 15px;&quot;&gt;detekce ztráty napájení&lt;/font&gt;&lt;/b&gt;" style="rounded=0;whiteSpace=wrap;html=1;strokeWidth=2;fillColor=#B9E0A5;" parent="1" vertex="1">
          <mxGeometry x="750" y="200" width="210" height="30" as="geometry" />
        </mxCell>
        <mxCell id="LFzxi-WGZ4mP3qVazpCQ-9" value="&lt;b&gt;&lt;font style=&quot;font-size: 15px;&quot;&gt;LPCMP ovladač&lt;/font&gt;&lt;/b&gt;" style="rounded=0;whiteSpace=wrap;html=1;strokeWidth=2;fillColor=#fff2cc;strokeColor=#000000;" parent="1" vertex="1">
          <mxGeometry x="750" y="230" width="210" height="30" as="geometry" />
        </mxCell>
        <mxCell id="LFzxi-WGZ4mP3qVazpCQ-10" value="&lt;b&gt;&lt;font style=&quot;font-size: 15px;&quot;&gt;nízko-výkonový komparátor&lt;/font&gt;&lt;/b&gt;&lt;div&gt;&lt;b&gt;&lt;font style=&quot;font-size: 15px;&quot;&gt;(LPCMP)&lt;/font&gt;&lt;/b&gt;&lt;/div&gt;" style="rounded=0;whiteSpace=wrap;html=1;strokeWidth=2;fillColor=#ffe6cc;strokeColor=#000000;" parent="1" vertex="1">
          <mxGeometry x="750" y="260" width="210" height="50" as="geometry" />
        </mxCell>
        <mxCell id="LFzxi-WGZ4mP3qVazpCQ-11" value="" style="endArrow=classic;html=1;rounded=0;entryX=0.5;entryY=0;entryDx=0;entryDy=0;strokeWidth=3;fillColor=#f8cecc;strokeColor=#FF6666;" parent="1" target="LFzxi-WGZ4mP3qVazpCQ-5" edge="1">
          <mxGeometry width="50" height="50" relative="1" as="geometry">
            <mxPoint x="750" y="280" as="sourcePoint" />
            <mxPoint x="560" y="290" as="targetPoint" />
            <Array as="points">
              <mxPoint x="700" y="280" />
            </Array>
          </mxGeometry>
        </mxCell>
        <mxCell id="LFzxi-WGZ4mP3qVazpCQ-12" value="" style="endArrow=classic;html=1;rounded=0;entryX=0.5;entryY=0;entryDx=0;entryDy=0;fillColor=#f8cecc;strokeColor=#FF6666;strokeWidth=3;" parent="1" target="LFzxi-WGZ4mP3qVazpCQ-4" edge="1">
          <mxGeometry width="50" height="50" relative="1" as="geometry">
            <mxPoint x="700" y="280" as="sourcePoint" />
            <mxPoint x="560" y="290" as="targetPoint" />
            <Array as="points">
              <mxPoint x="380" y="280" />
            </Array>
          </mxGeometry>
        </mxCell>
        <mxCell id="LFzxi-WGZ4mP3qVazpCQ-14" value="&lt;b&gt;&lt;font style=&quot;font-size: 15px;&quot;&gt;USB software&lt;/font&gt;&lt;/b&gt;" style="rounded=0;whiteSpace=wrap;html=1;strokeWidth=2;fillColor=#B9E0A5;strokeColor=#000000;" parent="1" vertex="1">
          <mxGeometry x="760" y="490" width="200" height="30" as="geometry" />
        </mxCell>
        <mxCell id="LFzxi-WGZ4mP3qVazpCQ-15" value="&lt;b&gt;&lt;font style=&quot;font-size: 15px;&quot;&gt;EHCI kontrolér&lt;/font&gt;&lt;/b&gt;" style="rounded=0;whiteSpace=wrap;html=1;strokeWidth=2;fillColor=#fff2cc;strokeColor=#000000;" parent="1" vertex="1">
          <mxGeometry x="840" y="520" width="120" height="30" as="geometry" />
        </mxCell>
        <mxCell id="LFzxi-WGZ4mP3qVazpCQ-16" value="&lt;b&gt;&lt;font style=&quot;font-size: 15px;&quot;&gt;fyzické USB-C&lt;/font&gt;&lt;/b&gt;" style="rounded=0;whiteSpace=wrap;html=1;strokeWidth=2;fillColor=#ffe6cc;strokeColor=#000000;" parent="1" vertex="1">
          <mxGeometry x="760" y="550" width="200" height="30" as="geometry" />
        </mxCell>
        <mxCell id="LFzxi-WGZ4mP3qVazpCQ-17" value="&lt;b&gt;&lt;font style=&quot;font-size: 15px;&quot;&gt;USB OTG&lt;/font&gt;&lt;/b&gt;" style="rounded=0;whiteSpace=wrap;html=1;strokeWidth=2;fillColor=#fff2cc;strokeColor=#000000;" parent="1" vertex="1">
          <mxGeometry x="760" y="520" width="80" height="30" as="geometry" />
        </mxCell>
        <mxCell id="LFzxi-WGZ4mP3qVazpCQ-18" value="" style="endArrow=classic;startArrow=classic;html=1;rounded=0;exitX=0.5;exitY=0;exitDx=0;exitDy=0;entryX=1;entryY=0.5;entryDx=0;entryDy=0;strokeWidth=3;" parent="1" source="LFzxi-WGZ4mP3qVazpCQ-14" target="LFzxi-WGZ4mP3qVazpCQ-5" edge="1">
          <mxGeometry width="50" height="50" relative="1" as="geometry">
            <mxPoint x="620" y="430" as="sourcePoint" />
            <mxPoint x="670" y="380" as="targetPoint" />
            <Array as="points">
              <mxPoint x="860" y="400" />
            </Array>
          </mxGeometry>
        </mxCell>
        <mxCell id="LFzxi-WGZ4mP3qVazpCQ-19" value="&lt;b&gt;&lt;font style=&quot;font-size: 15px;&quot;&gt;přenos dat&lt;/font&gt;&lt;/b&gt;" style="text;html=1;align=center;verticalAlign=middle;whiteSpace=wrap;rounded=0;" parent="1" vertex="1">
          <mxGeometry x="770" y="380" width="110" height="20" as="geometry" />
        </mxCell>
        <mxCell id="LFzxi-WGZ4mP3qVazpCQ-20" value="" style="endArrow=classic;html=1;rounded=0;exitX=0;exitY=0.5;exitDx=0;exitDy=0;entryX=0.5;entryY=1;entryDx=0;entryDy=0;strokeWidth=3;fillColor=#f8cecc;strokeColor=#FF6666;" parent="1" source="LFzxi-WGZ4mP3qVazpCQ-17" target="LFzxi-WGZ4mP3qVazpCQ-2" edge="1">
          <mxGeometry width="50" height="50" relative="1" as="geometry">
            <mxPoint x="610" y="540" as="sourcePoint" />
            <mxPoint x="660" y="490" as="targetPoint" />
            <Array as="points">
              <mxPoint x="540" y="535" />
            </Array>
          </mxGeometry>
        </mxCell>
        <mxCell id="LFzxi-WGZ4mP3qVazpCQ-21" value="&lt;b&gt;&lt;font style=&quot;color: rgb(234, 107, 102); font-size: 15px;&quot;&gt;detekce připojení/odpojení&lt;/font&gt;&lt;/b&gt;" style="text;html=1;align=center;verticalAlign=middle;whiteSpace=wrap;rounded=0;" parent="1" vertex="1">
          <mxGeometry x="540" y="510" width="220" height="30" as="geometry" />
        </mxCell>
        <mxCell id="LFzxi-WGZ4mP3qVazpCQ-22" value="&lt;b&gt;&lt;font style=&quot;font-size: 15px;&quot;&gt;FATFS&lt;/font&gt;&lt;/b&gt;" style="rounded=0;whiteSpace=wrap;html=1;strokeWidth=2;fillColor=#B9E0A5;" parent="1" vertex="1">
          <mxGeometry x="320" y="510" width="120" height="30" as="geometry" />
        </mxCell>
        <mxCell id="LFzxi-WGZ4mP3qVazpCQ-23" value="&lt;b&gt;&lt;font style=&quot;font-size: 15px;&quot;&gt;SDHC firmware&lt;/font&gt;&lt;/b&gt;" style="rounded=0;whiteSpace=wrap;html=1;strokeWidth=2;fillColor=#fff2cc;strokeColor=#000000;" parent="1" vertex="1">
          <mxGeometry x="320" y="540" width="120" height="30" as="geometry" />
        </mxCell>
        <mxCell id="LFzxi-WGZ4mP3qVazpCQ-24" value="&lt;b&gt;&lt;font style=&quot;font-size: 15px;&quot;&gt;fyzická karta&lt;/font&gt;&lt;/b&gt;" style="rounded=0;whiteSpace=wrap;html=1;strokeWidth=2;fillColor=#ffe6cc;strokeColor=#000000;" parent="1" vertex="1">
          <mxGeometry x="320" y="570" width="120" height="30" as="geometry" />
        </mxCell>
        <mxCell id="LFzxi-WGZ4mP3qVazpCQ-25" value="" style="endArrow=classic;html=1;rounded=0;entryX=0.5;entryY=0;entryDx=0;entryDy=0;exitX=0.5;exitY=1;exitDx=0;exitDy=0;strokeWidth=3;" parent="1" source="LFzxi-WGZ4mP3qVazpCQ-4" target="LFzxi-WGZ4mP3qVazpCQ-22" edge="1">
          <mxGeometry width="50" height="50" relative="1" as="geometry">
            <mxPoint x="370" y="410" as="sourcePoint" />
            <mxPoint x="420" y="360" as="targetPoint" />
          </mxGeometry>
        </mxCell>
        <mxCell id="LFzxi-WGZ4mP3qVazpCQ-26" value="&lt;b&gt;&lt;font style=&quot;font-size: 15px;&quot;&gt;externí RTC&lt;/font&gt;&lt;/b&gt;" style="rounded=0;whiteSpace=wrap;html=1;strokeWidth=2;fillColor=#B9E0A5;" parent="1" vertex="1">
          <mxGeometry x="160" y="190" width="130" height="30" as="geometry" />
        </mxCell>
        <mxCell id="LFzxi-WGZ4mP3qVazpCQ-27" value="&lt;b&gt;&lt;font style=&quot;font-size: 15px;&quot;&gt;DS3231 ovladač&lt;/font&gt;&lt;/b&gt;" style="rounded=0;whiteSpace=wrap;html=1;strokeWidth=2;fillColor=#fff2cc;strokeColor=#000000;" parent="1" vertex="1">
          <mxGeometry x="160" y="220" width="130" height="30" as="geometry" />
        </mxCell>
        <mxCell id="LFzxi-WGZ4mP3qVazpCQ-28" value="&lt;b&gt;&lt;font style=&quot;font-size: 15px;&quot;&gt;DS3231M+&lt;/font&gt;&lt;/b&gt;" style="rounded=0;whiteSpace=wrap;html=1;strokeWidth=2;fillColor=#ffe6cc;strokeColor=#000000;" parent="1" vertex="1">
          <mxGeometry x="160" y="250" width="130" height="30" as="geometry" />
        </mxCell>
        <mxCell id="LFzxi-WGZ4mP3qVazpCQ-29" value="" style="endArrow=classic;html=1;rounded=0;entryX=0.998;entryY=0.341;entryDx=0;entryDy=0;exitX=0;exitY=0.5;exitDx=0;exitDy=0;strokeWidth=3;entryPerimeter=0;" parent="1" source="LFzxi-WGZ4mP3qVazpCQ-1" target="LFzxi-WGZ4mP3qVazpCQ-27" edge="1">
          <mxGeometry width="50" height="50" relative="1" as="geometry">
            <mxPoint x="370" y="440" as="sourcePoint" />
            <mxPoint x="420" y="390" as="targetPoint" />
          </mxGeometry>
        </mxCell>
        <mxCell id="LFzxi-WGZ4mP3qVazpCQ-30" value="&lt;b&gt;&lt;font style=&quot;font-size: 15px;&quot;&gt;interní RTC&lt;/font&gt;&lt;/b&gt;" style="rounded=0;whiteSpace=wrap;html=1;strokeWidth=2;fillColor=#B9E0A5;" parent="1" vertex="1">
          <mxGeometry x="150" y="320" width="130" height="30" as="geometry" />
        </mxCell>
        <mxCell id="LFzxi-WGZ4mP3qVazpCQ-31" value="&lt;b&gt;&lt;font style=&quot;font-size: 15px;&quot;&gt;IRTC ovladač&lt;/font&gt;&lt;/b&gt;" style="rounded=0;whiteSpace=wrap;html=1;strokeWidth=2;fillColor=#fff2cc;strokeColor=#000000;" parent="1" vertex="1">
          <mxGeometry x="150" y="350" width="130" height="30" as="geometry" />
        </mxCell>
        <mxCell id="LFzxi-WGZ4mP3qVazpCQ-32" value="&lt;b&gt;&lt;font style=&quot;font-size: 15px;&quot;&gt;RTC periferie&lt;/font&gt;&lt;/b&gt;" style="rounded=0;whiteSpace=wrap;html=1;strokeWidth=2;fillColor=#ffe6cc;strokeColor=#000000;" parent="1" vertex="1">
          <mxGeometry x="150" y="380" width="130" height="30" as="geometry" />
        </mxCell>
        <mxCell id="LFzxi-WGZ4mP3qVazpCQ-33" value="" style="endArrow=classic;html=1;rounded=0;exitX=1;exitY=0.5;exitDx=0;exitDy=0;entryX=-0.004;entryY=0.283;entryDx=0;entryDy=0;entryPerimeter=0;strokeWidth=3;" parent="1" source="LFzxi-WGZ4mP3qVazpCQ-31" target="LFzxi-WGZ4mP3qVazpCQ-4" edge="1">
          <mxGeometry width="50" height="50" relative="1" as="geometry">
            <mxPoint x="370" y="440" as="sourcePoint" />
            <mxPoint x="320" y="390" as="targetPoint" />
          </mxGeometry>
        </mxCell>
        <mxCell id="LFzxi-WGZ4mP3qVazpCQ-34" value="&lt;font style=&quot;font-size: 15px;&quot;&gt;&lt;b style=&quot;&quot;&gt;UART&lt;/b&gt;&lt;/font&gt;" style="rounded=0;whiteSpace=wrap;html=1;strokeWidth=2;fillColor=#B9E0A5;" parent="1" vertex="1">
          <mxGeometry x="150" y="420" width="130" height="30" as="geometry" />
        </mxCell>
        <mxCell id="LFzxi-WGZ4mP3qVazpCQ-35" value="&lt;b&gt;&lt;font style=&quot;font-size: 15px;&quot;&gt;LPUART ovladač&lt;/font&gt;&lt;/b&gt;" style="rounded=0;whiteSpace=wrap;html=1;strokeWidth=2;fillColor=#fff2cc;strokeColor=#000000;" parent="1" vertex="1">
          <mxGeometry x="150" y="450" width="130" height="30" as="geometry" />
        </mxCell>
        <mxCell id="LFzxi-WGZ4mP3qVazpCQ-36" value="&lt;b&gt;&lt;font style=&quot;font-size: 15px;&quot;&gt;LP_FLEXCOMM&lt;/font&gt;&lt;/b&gt;&lt;div&gt;&lt;b&gt;&lt;font style=&quot;font-size: 15px;&quot;&gt;periferie&lt;/font&gt;&lt;/b&gt;&lt;/div&gt;" style="rounded=0;whiteSpace=wrap;html=1;strokeWidth=2;fillColor=#ffe6cc;strokeColor=#000000;" parent="1" vertex="1">
          <mxGeometry x="150" y="480" width="130" height="40" as="geometry" />
        </mxCell>
        <mxCell id="LFzxi-WGZ4mP3qVazpCQ-37" value="" style="endArrow=classic;html=1;rounded=0;entryX=0;entryY=0.75;entryDx=0;entryDy=0;exitX=1.003;exitY=0.667;exitDx=0;exitDy=0;exitPerimeter=0;strokeWidth=3;" parent="1" source="LFzxi-WGZ4mP3qVazpCQ-34" target="LFzxi-WGZ4mP3qVazpCQ-4" edge="1">
          <mxGeometry width="50" height="50" relative="1" as="geometry">
            <mxPoint x="195" y="570" as="sourcePoint" />
            <mxPoint x="245" y="520" as="targetPoint" />
          </mxGeometry>
        </mxCell>
        <mxCell id="LFzxi-WGZ4mP3qVazpCQ-38" value="" style="endArrow=classic;html=1;rounded=0;exitX=0;exitY=0.5;exitDx=0;exitDy=0;entryX=0;entryY=0.5;entryDx=0;entryDy=0;strokeWidth=3;" parent="1" source="LFzxi-WGZ4mP3qVazpCQ-27" target="LFzxi-WGZ4mP3qVazpCQ-31" edge="1">
          <mxGeometry width="50" height="50" relative="1" as="geometry">
            <mxPoint x="110" y="410" as="sourcePoint" />
            <mxPoint x="160" y="360" as="targetPoint" />
            <Array as="points">
              <mxPoint x="130" y="235" />
              <mxPoint x="130" y="365" />
            </Array>
          </mxGeometry>
        </mxCell>
      </root>
    </mxGraphModel>
  </diagram>
</mxfile>
